<?xml version="1.0" encoding="UTF-8"?>
<svg id="b" data-name="Layer 2" xmlns="http://www.w3.org/2000/svg" xmlns:xlink="http://www.w3.org/1999/xlink" viewBox="0 0 100 100">
  <defs>
    <clipPath id="d">
      <polygon points="14 0 100 0 100 86 86 100 0 100 0 14 14 0" style="fill: none;"/>
    </clipPath>
  </defs>
  <g id="c" data-name="Layer 1">
    <g style="clip-path: url(#d);">
      <g>
        <rect width="100" height="100" style="fill: #9fe000;"/>
        <g style="isolation: isolate;">
          <path d="M16.68,75V27.4h8.57v47.6h-8.57Z" style="fill: #0f1115;"/>
          <path d="M34.77,75v-33.73h8.43v3.67h1.22c.59-1.13,1.56-2.12,2.92-2.96,1.36-.84,3.15-1.26,5.37-1.26,2.4,0,4.33.47,5.78,1.39,1.45.93,2.56,2.14,3.33,3.64h1.22c.77-1.45,1.86-2.65,3.26-3.6,1.4-.95,3.4-1.43,5.98-1.43,2.08,0,3.98.44,5.68,1.33,1.7.88,3.06,2.22,4.08,4.01,1.02,1.79,1.53,4.05,1.53,6.77v22.17h-8.57v-21.56c0-1.86-.48-3.25-1.43-4.18-.95-.93-2.29-1.39-4.01-1.39-1.95,0-3.46.62-4.52,1.87-1.07,1.25-1.6,3.03-1.6,5.34v19.92h-8.57v-21.56c0-1.86-.48-3.25-1.43-4.18-.95-.93-2.29-1.39-4.01-1.39-1.95,0-3.46.62-4.52,1.87s-1.6,3.03-1.6,5.34v19.92h-8.57Z" style="fill: #0f1115;"/>
        </g>
      </g>
    </g>
  </g>
</svg>